<svg width="256" height="256" viewBox="0 0 256 256" fill="none" xmlns="http://www.w3.org/2000/svg">
<path d="M82.3096 203.761C87.8033 191.973 101.136 186.874 111.926 191.902C122.716 196.93 127.386 210.418 121.893 222.206C116.399 233.994 103.066 239.093 92.2764 234.065C81.4866 229.037 76.816 215.548 82.3096 203.761ZM123.681 22.4199C126.131 20.524 129.015 19.6189 132.54 20.1514C150.462 22.8581 167.09 37.2083 173.778 50.0693C176.809 55.8966 176.423 61.7132 174.513 67.8369C173.55 70.923 172.222 74.014 170.789 77.1768C169.381 80.284 167.837 83.5297 166.589 86.6865C161.738 98.9539 143.625 148.14 138.876 160.585C136.445 166.955 134.965 170.292 133.259 172.435C131.733 174.35 129.902 175.453 126.065 176.731C124.646 177.205 121.932 177.394 118.323 177.002C114.812 176.62 110.781 175.724 106.896 174.313C103.001 172.898 99.3737 171.01 96.584 168.709C93.7959 166.41 91.9933 163.83 91.3818 161.018C91.0777 159.619 90.9864 156.941 91.2051 152.987C91.4185 149.128 91.9082 144.323 92.626 138.834C94.0608 127.862 96.3884 114.302 99.1592 100.393C104.724 72.4587 111.987 43.5713 117.272 31.416C118.983 27.4826 121.149 24.3788 123.681 22.4199Z" fill="#FF6200" stroke="#BE2D0D" stroke-width="6"/>
</svg>
