<svg width="256" height="256" viewBox="0 0 256 256" fill="none" xmlns="http://www.w3.org/2000/svg">
<path d="M99.8965 192.466C103.076 192.321 106.897 192.609 110.766 193.214C114.626 193.817 118.434 194.719 121.57 195.755C124.837 196.834 126.963 197.926 127.836 198.72C128.145 199 128.679 199.691 129.365 200.961C130.022 202.176 130.717 203.728 131.414 205.539C132.808 209.158 134.145 213.63 135.182 218.113C136.221 222.608 136.935 227.004 137.125 230.484C137.221 232.232 137.177 233.644 137.02 234.677C136.899 235.466 136.743 235.802 136.702 235.892C136.639 235.932 136.514 236.006 136.305 236.104C135.919 236.286 135.377 236.491 134.662 236.707C133.233 237.139 131.322 237.554 129.035 237.921C124.473 238.654 118.672 239.16 112.776 239.313C106.874 239.467 100.984 239.264 96.2295 238.613C93.8483 238.288 91.8331 237.86 90.2764 237.346C88.6445 236.806 87.8481 236.277 87.5527 235.959C87.2111 235.591 86.7703 234.817 86.4004 233.427C86.0409 232.075 85.8062 230.359 85.7109 228.343C85.5205 224.313 85.9004 219.404 86.6914 214.476C87.4813 209.553 88.6612 204.731 90.0127 200.885C90.6891 198.96 91.3883 197.336 92.0723 196.089C92.7876 194.784 93.3602 194.127 93.6836 193.878C94.5235 193.232 96.5427 192.618 99.8965 192.466ZM74.9746 17.0029C111.255 17.133 143.906 23.58 165.853 34.915C176.933 40.6379 185.072 47.4957 189.688 55.1982C194.242 62.7989 195.49 71.4147 192.488 81.1133C189.34 91.2833 185.389 97.761 181.189 102.039C177.011 106.295 172.415 108.549 167.662 110.007C165.264 110.742 162.832 111.273 160.363 111.762C157.945 112.24 155.385 112.695 152.985 113.248C148.145 114.363 143.244 116.016 139.273 119.839C135.293 123.672 132.985 129.304 131.567 135.113C130.135 140.981 129.521 147.424 129.199 153.241C129.038 156.159 128.948 158.952 128.871 161.456C128.793 163.981 128.729 166.176 128.617 167.976C128.567 168.783 128.508 169.457 128.446 170.009C128.177 169.96 127.908 169.916 127.642 169.876C126.33 169.68 124.766 169.537 123.059 169.441C119.638 169.249 115.483 169.234 111.304 169.396C107.127 169.559 102.863 169.901 99.2305 170.437C97.4154 170.704 95.7159 171.027 94.2441 171.413C93.4025 171.634 92.5712 171.892 91.8047 172.201C91.3804 171.388 90.8793 170.111 90.3643 168.334C89.0974 163.962 87.9942 157.513 87.374 150.377C86.7552 143.256 86.6295 135.595 87.2588 128.812C87.8988 121.915 89.2846 116.366 91.375 113.126C93.4343 109.934 96.5501 107.799 100.308 106.267C104.097 104.721 108.332 103.872 112.45 103.13C116.351 102.427 120.524 101.776 123.431 100.537C124.927 99.8991 126.513 98.941 127.531 97.3613C128.634 95.6508 128.776 93.6883 128.253 91.7266C126.917 86.7164 122.734 83.3383 117.836 81.0996C112.884 78.8362 106.656 77.4731 100.179 76.7676C88.1796 75.4608 74.6161 76.3422 65.1953 78.5625C63.2281 75.1682 61.9498 70.7628 61.3662 65.6885C60.6852 59.7669 60.9754 53.1466 62.0635 46.6182C63.1511 40.0922 65.0204 33.7505 67.4336 28.3877C69.6546 23.452 72.2546 19.5259 74.9746 17.0029Z" fill="#36A6ED" stroke="#005388" stroke-width="6" stroke-linecap="round"/>
</svg>
